<?xml version="1.0" encoding="utf-8"?>
<!-- Generator: Adobe Illustrator 24.1.3, SVG Export Plug-In . SVG Version: 6.00 Build 0)  -->
<svg version="1.1" id="Layer_1" xmlns="http://www.w3.org/2000/svg" xmlns:xlink="http://www.w3.org/1999/xlink" x="0px" y="0px"
	 viewBox="0 0 48 42" style="enable-background:new 0 0 48 42;" xml:space="preserve">
<style type="text/css">
	.st0{fill:#FFFFFF;}
</style>
<g id="exit" transform="translate(0 -1)">
	<g id="Group_2359" transform="translate(7.952 1)">
		<path id="Path_1382" class="st0" d="M10.1,20.2C4.5,20.2,0,15.7,0,10.1S4.5,0,10.1,0c5.6,0,10.1,4.5,10.1,10.1c0,0,0,0,0,0
			C20.2,15.6,15.6,20.2,10.1,20.2z M10.1,2C5.6,2,2,5.6,2,10.1s3.6,8.1,8.1,8.1s8.1-3.6,8.1-8.1C18.1,5.6,14.5,2,10.1,2L10.1,2z"/>
	</g>
	<g id="Group_2360" transform="translate(0 24.849)">
		<path id="Path_1383" class="st0" d="M35.3,18.2H1c-0.6,0-1-0.5-1-1V9.1C0,4.1,4.1,0,9.1,0h18.2c5,0,9.1,4.1,9.1,9.1v8.1
			C36.3,17.7,35.8,18.1,35.3,18.2z M2,16.1h32.3V9.1c0-3.9-3.2-7.1-7.1-7.1H9.1C5.2,2,2,5.2,2,9.1L2,16.1z"/>
	</g>
	<g id="Group_2363">
		<g id="Group_2361" transform="translate(29.85 18.992)">
			<path id="Path_1384" class="st0" d="M17.1,2H1C0.5,2,0,1.6,0,1s0.5-1,1-1h16.1c0.6,0,1,0.5,1,1S17.7,2,17.1,2z"/>
		</g>
		<g id="Group_2362" transform="translate(37.916 10.94)">
			<path id="Path_1385" class="st0" d="M1,18.1c-0.6,0-1-0.4-1-1c0-0.3,0.1-0.5,0.3-0.7l7.4-7.4L0.3,1.7c-0.4-0.4-0.4-1-0.1-1.4
				s1-0.4,1.4-0.1c0,0,0,0,0.1,0.1l8.1,8.1c0.4,0.4,0.4,1,0,1.4l-8.1,8.1C1.5,18,1.3,18.2,1,18.1L1,18.1z"/>
		</g>
	</g>
</g>
</svg>
