<svg width="18" height="16" viewBox="0 0 18 16" fill="none" xmlns="http://www.w3.org/2000/svg">
<path d="M18 11.23C18.0011 10.1799 17.683 9.15425 17.088 8.28899C16.6633 7.66781 16.1101 7.14504 15.466 6.75599C15.8614 6.37916 16.1736 5.92372 16.3824 5.41897C16.5912 4.91423 16.692 4.37136 16.6783 3.8253C16.6646 3.27924 16.5368 2.7421 16.303 2.24843C16.0692 1.75476 15.7347 1.31551 15.3209 0.958949C14.9071 0.602383 14.4232 0.336404 13.9004 0.178124C13.3776 0.0198441 12.8275 -0.0272293 12.2854 0.0399365C11.7433 0.107102 11.2213 0.287018 10.7529 0.568104C10.2846 0.84919 9.88026 1.22522 9.566 1.67199C9.19036 1.61668 8.80864 1.61668 8.433 1.67199C8.11932 1.22361 7.71511 0.845986 7.24645 0.563494C6.7778 0.281002 6.25511 0.0999204 5.71214 0.0319389C5.16917 -0.0360425 4.61797 0.0105864 4.09414 0.168816C3.5703 0.327046 3.08546 0.59336 2.67092 0.950568C2.25638 1.30778 1.92135 1.74794 1.68745 2.24264C1.45356 2.73734 1.32599 3.2756 1.313 3.82266C1.3 4.36971 1.40186 4.91342 1.612 5.41867C1.82214 5.92393 2.13589 6.3795 2.533 6.75599C1.8889 7.14599 1.3361 7.66981 0.912 8.29199C0.317559 9.15641 -0.000462805 10.1809 5.05509e-07 11.23V13.408H3.774V15.039H14.222V13.408H18V11.23ZM12.772 0.965992C13.5544 0.965992 14.3047 1.27679 14.858 1.83003C15.4112 2.38326 15.722 3.1336 15.722 3.91599C15.722 4.69838 15.4112 5.44873 14.858 6.00196C14.3047 6.55519 13.5544 6.86599 12.772 6.86599H12.685L12.691 6.84699C12.7416 6.70326 12.7837 6.55667 12.817 6.40799L12.824 6.37599C12.833 6.33599 12.84 6.29499 12.848 6.25399C12.848 6.23499 12.855 6.21499 12.858 6.19599C12.864 6.15933 12.8697 6.12266 12.875 6.08599C12.875 6.05999 12.882 6.03499 12.885 6.00899C12.888 5.98299 12.893 5.94399 12.896 5.90899C12.899 5.87399 12.901 5.84199 12.904 5.80899C12.907 5.77599 12.904 5.75599 12.909 5.72999C12.909 5.67333 12.909 5.61633 12.909 5.55899C12.909 5.55899 12.909 5.55099 12.909 5.54599C12.909 5.54099 12.909 5.54599 12.909 5.53899C12.909 5.48099 12.909 5.42299 12.909 5.36499C12.909 5.34799 12.909 5.33199 12.909 5.31499C12.909 5.26566 12.9053 5.21699 12.898 5.16899C12.898 5.15799 12.898 5.14699 12.898 5.13599C12.8273 4.44774 12.5749 3.79068 12.1665 3.23221C11.7581 2.67374 11.2084 2.23396 10.574 1.95799C10.8502 1.64755 11.1886 1.39876 11.5673 1.22784C11.946 1.05692 12.3565 0.967697 12.772 0.965992ZM7.978 2.77899L8.006 2.76899L8.095 2.73899L8.163 2.71799L8.213 2.70399L8.303 2.68099C8.75996 2.56942 9.23705 2.56942 9.694 2.68099L9.783 2.70399L9.834 2.71799L9.901 2.73899L9.991 2.76899L10.018 2.77899C10.5098 2.96131 10.9443 3.27113 11.277 3.6767C11.6096 4.08227 11.8284 4.56899 11.911 5.08699V5.11299C11.916 5.14899 11.921 5.18499 11.925 5.22199C11.925 5.23499 11.925 5.24899 11.925 5.26199C11.925 5.29499 11.931 5.32899 11.933 5.36199C11.933 5.37599 11.933 5.39099 11.933 5.40499C11.933 5.44766 11.933 5.49099 11.933 5.53499C11.933 5.53499 11.933 5.54199 11.933 5.54599C11.933 5.54999 11.933 5.54599 11.933 5.55099C11.933 5.59299 11.933 5.63499 11.933 5.67599C11.933 5.68899 11.933 5.70199 11.933 5.71499C11.933 5.75499 11.93 5.79499 11.924 5.83499C11.924 5.84999 11.924 5.86599 11.919 5.88099C11.914 5.89599 11.913 5.93199 11.909 5.95799C11.905 5.98399 11.903 5.99799 11.9 6.01799C11.897 6.03799 11.89 6.07799 11.884 6.10799C11.878 6.13799 11.873 6.16099 11.867 6.18699L11.856 6.23499C11.8467 6.27432 11.8363 6.31333 11.825 6.35199C11.825 6.36699 11.816 6.38299 11.812 6.39799C11.808 6.41299 11.798 6.44199 11.791 6.46399L11.773 6.51699L11.752 6.57599C11.7393 6.60932 11.7263 6.64266 11.713 6.67599L11.694 6.71999C11.682 6.74733 11.6697 6.77466 11.657 6.80199V6.81199L11.643 6.84099C11.629 6.87033 11.6143 6.89933 11.599 6.92799L11.581 6.96099C11.564 6.99099 11.547 7.02099 11.529 7.05099L11.508 7.08599C11.4887 7.11733 11.4687 7.14832 11.448 7.17899L11.409 7.23499L11.375 7.28199L11.33 7.34199L11.298 7.38199L11.249 7.44199L11.217 7.47899L11.164 7.53799L11.132 7.57199C11.1027 7.60266 11.073 7.63266 11.043 7.66199L10.989 7.71399L10.95 7.74899L10.886 7.80499L10.853 7.83199L10.773 7.89499L10.751 7.91199C10.2434 8.28959 9.62763 8.49352 8.995 8.49352C8.36237 8.49352 7.74658 8.28959 7.239 7.91199L7.217 7.89599L7.137 7.83299L7.104 7.80599L7.04 7.74999L7 7.71699L6.945 7.66499C6.91433 7.63566 6.88467 7.60566 6.856 7.57499L6.824 7.54099L6.771 7.48099L6.739 7.44499L6.69 7.38499L6.658 7.34499L6.613 7.28499L6.579 7.23799L6.54 7.18199C6.51933 7.15133 6.49933 7.12033 6.48 7.08899L6.459 7.05399C6.441 7.02399 6.423 6.99299 6.406 6.96299L6.388 6.92899C6.373 6.89999 6.358 6.87099 6.343 6.84199L6.328 6.81099C6.315 6.78299 6.302 6.75399 6.289 6.72599L6.271 6.68499C6.257 6.65166 6.24367 6.61833 6.231 6.58499L6.211 6.52899L6.2 6.46199C6.193 6.44099 6.186 6.41999 6.18 6.39899C6.174 6.37799 6.161 6.33599 6.153 6.30399C6.145 6.27199 6.142 6.25899 6.136 6.23699L6.124 6.18399C6.124 6.16199 6.114 6.14099 6.11 6.11899C6.106 6.09699 6.097 6.05099 6.092 6.01899C6.092 5.99999 6.086 5.98199 6.084 5.96299C6.082 5.94399 6.077 5.90799 6.073 5.87999C6.069 5.85199 6.073 5.85299 6.073 5.83899C6.073 5.79799 6.066 5.75699 6.064 5.71599C6.064 5.70399 6.064 5.69199 6.064 5.67999C6.064 5.63599 6.064 5.59199 6.064 5.54699C6.064 5.50199 6.064 5.45199 6.064 5.40499C6.064 5.39199 6.064 5.37899 6.064 5.36699C6.064 5.33199 6.064 5.29599 6.072 5.26099C6.072 5.24899 6.072 5.23699 6.072 5.22399C6.072 5.18599 6.081 5.14799 6.086 5.11099V5.08899C6.16814 4.57075 6.38666 4.08368 6.71914 3.67774C7.05162 3.27181 7.48609 2.96162 7.978 2.77899ZM2.278 3.91499C2.27794 3.31694 2.45978 2.73301 2.79937 2.24072C3.13897 1.74844 3.62026 1.37108 4.17935 1.15875C4.73844 0.946417 5.3489 0.909154 5.92966 1.05191C6.51043 1.19466 7.03405 1.51067 7.431 1.95799C6.79511 2.23307 6.24397 2.67257 5.83428 3.2313C5.42459 3.79003 5.17114 4.44782 5.1 5.13699C5.1 5.14699 5.1 5.15599 5.1 5.16599C5.09533 5.21599 5.09133 5.26666 5.088 5.31799C5.088 5.33299 5.088 5.34899 5.088 5.36399C5.088 5.42399 5.088 5.48499 5.088 5.54599C5.088 5.60699 5.088 5.66899 5.088 5.73099C5.088 5.75599 5.088 5.77999 5.088 5.80499C5.088 5.82999 5.088 5.87599 5.096 5.91099C5.104 5.94599 5.102 5.97399 5.106 6.00499C5.11 6.03599 5.113 6.05899 5.116 6.08599C5.119 6.11299 5.126 6.15699 5.132 6.19199C5.138 6.22699 5.139 6.23399 5.143 6.25499C5.15 6.29399 5.158 6.33399 5.166 6.37299L5.175 6.41099C5.2075 6.55521 5.24823 6.69744 5.297 6.83699L5.306 6.86399H5.224C4.44212 6.8632 3.69249 6.55225 3.13962 5.99937C2.58675 5.4465 2.27579 4.69687 2.275 3.91499H2.278ZM4.588 10.075L4.557 10.126C4.535 10.162 4.513 10.197 4.492 10.233L4.457 10.294C4.438 10.327 4.419 10.361 4.401 10.394L4.367 10.458L4.315 10.558L4.284 10.622C4.267 10.658 4.25 10.694 4.234 10.73L4.2 10.792C4.181 10.835 4.163 10.879 4.146 10.923L4.13 10.961C4.10733 11.0177 4.086 11.075 4.066 11.133L4.053 11.173C4.038 11.217 4.023 11.262 4.009 11.307L3.99 11.369C3.979 11.407 3.967 11.445 3.957 11.483L3.939 11.551C3.92967 11.5877 3.92067 11.6243 3.912 11.661L3.896 11.731C3.888 11.768 3.88 11.806 3.872 11.843C3.864 11.88 3.863 11.888 3.859 11.911C3.851 11.952 3.845 11.993 3.838 12.034C3.838 12.053 3.831 12.073 3.829 12.092C3.82 12.152 3.812 12.213 3.805 12.274C3.799 12.3293 3.79367 12.3847 3.789 12.44H0.966V11.23C0.965737 10.4231 1.19526 9.63273 1.62771 8.95147C2.06017 8.2702 2.67767 7.72616 3.408 7.38299C4.13929 7.7673 4.97371 7.90946 5.791 7.78899C5.82 7.83099 5.85 7.87199 5.881 7.91299L5.913 7.95399C5.944 7.99299 5.975 8.03199 6.006 8.06899L6.046 8.11499C6.076 8.14966 6.10667 8.18299 6.138 8.21499L6.188 8.26699L6.275 8.35399L6.307 8.39199L6.182 8.46999L6.162 8.48299L6.04 8.56499L6 8.59199L5.893 8.66899L5.859 8.69399C5.81433 8.72799 5.77 8.76133 5.726 8.79399L5.697 8.81799L5.597 8.90499L5.557 8.93899L5.457 9.03099L5.431 9.05499C5.39033 9.09366 5.35 9.13299 5.31 9.17299L5.279 9.20399L5.189 9.29799L5.154 9.33599C5.12067 9.37266 5.08733 9.40966 5.054 9.44699L5.039 9.46499C5.00233 9.50833 4.966 9.55233 4.93 9.59699L4.901 9.63399L4.822 9.73399L4.792 9.77399C4.758 9.81999 4.724 9.86699 4.692 9.91499C4.66 9.96299 4.617 10.023 4.584 10.075H4.588ZM4.744 14.075V12.861C4.744 12.8077 4.744 12.7543 4.744 12.701C4.744 12.683 4.744 12.666 4.744 12.649C4.744 12.613 4.744 12.578 4.75 12.542C4.756 12.506 4.75 12.499 4.756 12.478C4.762 12.457 4.761 12.416 4.765 12.385C4.769 12.354 4.771 12.34 4.774 12.317C4.777 12.294 4.781 12.258 4.786 12.229C4.791 12.2 4.794 12.182 4.798 12.159C4.802 12.136 4.807 12.102 4.812 12.074C4.817 12.046 4.822 12.027 4.827 12.003C4.832 11.979 4.838 11.948 4.844 11.921C4.85 11.894 4.856 11.873 4.861 11.849C4.866 11.825 4.874 11.796 4.881 11.769C4.888 11.742 4.894 11.721 4.901 11.697C4.908 11.673 4.915 11.645 4.923 11.619C4.931 11.593 4.938 11.571 4.946 11.547C4.954 11.523 4.962 11.496 4.971 11.471C4.98 11.446 4.988 11.424 4.997 11.4C5.006 11.376 5.015 11.35 5.024 11.326L5.052 11.256L5.082 11.183L5.113 11.114L5.145 11.043L5.179 10.975L5.214 10.906L5.25 10.839L5.287 10.771L5.326 10.705L5.365 10.639L5.406 10.574L5.448 10.509L5.491 10.446L5.535 10.383L5.581 10.321L5.627 10.26L5.675 10.2L5.723 10.141L5.773 10.082L5.824 10.024L5.876 9.96699L5.929 9.91099L5.983 9.85599L6.038 9.80199L6.094 9.74899L6.151 9.69699L6.209 9.64599L6.268 9.59599L6.328 9.54699L6.39 9.49799L6.452 9.45099L6.516 9.40399L6.579 9.35999L6.645 9.31599L6.71 9.27399L6.778 9.23199L6.845 9.19199L6.915 9.15199L6.983 9.11499L7.055 9.07699L7.124 9.04199L7.179 9.01599C7.73885 9.31046 8.36193 9.46433 8.9945 9.46433C9.62707 9.46433 10.2501 9.31046 10.81 9.01599L10.865 9.04199L10.935 9.07699L11.007 9.11399L11.076 9.15199L11.145 9.19199L11.212 9.23199L11.279 9.27399L11.345 9.31699L11.41 9.36099L11.474 9.40599L11.537 9.45199L11.599 9.49899L11.66 9.54699L11.72 9.59599L11.779 9.64599L11.838 9.69699L11.895 9.74899L11.952 9.80199L12.007 9.85599L12.062 9.91099L12.114 9.96699L12.167 10.024L12.217 10.081L12.267 10.14L12.315 10.199L12.363 10.26L12.409 10.321L12.455 10.383L12.499 10.446L12.543 10.51L12.584 10.574L12.625 10.639L12.664 10.705L12.703 10.772L12.74 10.839L12.776 10.907L12.811 10.976L12.845 11.044L12.877 11.115L12.908 11.184C12.918 11.208 12.928 11.232 12.938 11.256C12.948 11.28 12.957 11.303 12.966 11.327C12.975 11.351 12.984 11.376 12.993 11.401C13.002 11.426 13.01 11.448 13.019 11.472C13.028 11.496 13.036 11.523 13.044 11.548C13.052 11.573 13.06 11.595 13.067 11.619C13.074 11.643 13.082 11.671 13.089 11.697C13.096 11.723 13.103 11.745 13.109 11.769C13.115 11.793 13.122 11.822 13.129 11.849C13.136 11.876 13.141 11.897 13.146 11.921C13.151 11.945 13.157 11.976 13.163 12.003C13.169 12.03 13.173 12.05 13.178 12.074C13.183 12.098 13.188 12.13 13.192 12.158C13.196 12.186 13.2 12.205 13.204 12.229C13.208 12.253 13.212 12.288 13.216 12.317C13.22 12.346 13.222 12.363 13.225 12.386C13.228 12.409 13.231 12.448 13.234 12.479C13.237 12.51 13.234 12.522 13.24 12.543C13.246 12.564 13.24 12.614 13.246 12.65C13.246 12.667 13.246 12.685 13.246 12.702C13.246 12.7553 13.246 12.8087 13.246 12.862V14.072H4.741L4.744 14.075ZM14.208 12.444C14.1987 12.326 14.1853 12.209 14.168 12.093C14.168 12.075 14.162 12.056 14.159 12.038C14.152 11.996 14.145 11.954 14.137 11.912C14.137 11.89 14.128 11.868 14.124 11.846C14.1167 11.808 14.1087 11.77 14.1 11.732L14.084 11.663C14.0753 11.6257 14.066 11.5883 14.056 11.551L14.038 11.484C14.027 11.445 14.016 11.407 14.005 11.369L13.987 11.308C13.973 11.263 13.958 11.218 13.942 11.172L13.929 11.134C13.9083 11.076 13.887 11.0187 13.865 10.962L13.85 10.925C13.832 10.881 13.814 10.836 13.795 10.793L13.769 10.735C13.753 10.698 13.736 10.662 13.719 10.626L13.688 10.563L13.636 10.463L13.6 10.392L13.544 10.292L13.509 10.232C13.488 10.196 13.466 10.16 13.444 10.124L13.413 10.074C13.3797 10.022 13.3463 9.97033 13.313 9.91899C13.28 9.87099 13.247 9.82499 13.213 9.77799L13.183 9.73799L13.103 9.63799L13.074 9.60099C13.038 9.55633 13.0017 9.51233 12.965 9.46899L12.95 9.45199C12.9173 9.41399 12.884 9.37666 12.85 9.33999L12.815 9.30199L12.724 9.20699L12.694 9.17599C12.654 9.13599 12.6137 9.09666 12.573 9.05799L12.547 9.03399L12.447 8.94199L12.408 8.90799L12.308 8.82099L12.28 8.79799C12.236 8.76266 12.1917 8.72933 12.147 8.69799L12.113 8.67299L12 8.59199L11.958 8.56199L11.837 8.48099L11.816 8.46699L11.689 8.39199L11.721 8.35999L11.809 8.27199L11.857 8.22199C11.889 8.18799 11.919 8.15399 11.95 8.12199L11.989 8.07699C12.021 8.03899 12.053 7.99899 12.084 7.95999L12.114 7.92099C12.145 7.87999 12.175 7.83899 12.205 7.79599C13.0223 7.91646 13.8567 7.7743 14.588 7.38999C15.3184 7.73307 15.936 8.27708 16.3684 8.95837C16.8009 9.63966 17.0304 10.43 17.03 11.237V12.448L14.208 12.444Z" fill="#F6F8FE"/>
</svg>
