<?xml version="1.0" encoding="utf-8"?>
<!-- Generator: Adobe Illustrator 24.1.3, SVG Export Plug-In . SVG Version: 6.00 Build 0)  -->
<svg version="1.1" id="Layer_1" xmlns="http://www.w3.org/2000/svg" xmlns:xlink="http://www.w3.org/1999/xlink" x="0px" y="0px"
	 viewBox="0 0 16 16" style="enable-background:new 0 0 16 16;" xml:space="preserve">
<style type="text/css">
	.st0{clip-path:url(#SVGID_2_);}
	.st1{fill:#1B2739;}
</style>
<g>
	<defs>
		<rect id="SVGID_1_" y="0" width="16" height="16"/>
	</defs>
	<clipPath id="SVGID_2_">
		<use xlink:href="#SVGID_1_"  style="overflow:visible;"/>
	</clipPath>
	<g class="st0">
		<path class="st1" d="M12.5,9.5C12.2,9.5,12,9.7,12,10v4.5H1v-11h4.5C5.8,3.5,6,3.3,6,3S5.8,2.5,5.5,2.5h-5C0.2,2.5,0,2.7,0,3v12
			c0,0.3,0.2,0.5,0.5,0.5h12c0.3,0,0.5-0.2,0.5-0.5v-5C13,9.7,12.8,9.5,12.5,9.5z"/>
		<path class="st1" d="M15.8,4.1l-4-3.5c-0.1-0.1-0.4-0.2-0.5-0.1C11.1,0.6,11,0.8,11,1v1.5h-0.3c-3.2,0-6,2.4-6.4,5.6L4,9.9
			c0,0.2,0.1,0.5,0.3,0.5c0.1,0,0.1,0,0.2,0c0.2,0,0.3-0.1,0.4-0.2l0.7-1.2c1-1.6,2.8-2.6,4.7-2.6H11V8c0,0.2,0.1,0.4,0.3,0.5
			c0.2,0.1,0.4,0.1,0.5-0.1l4-3.5C15.9,4.8,16,4.6,16,4.5S15.9,4.2,15.8,4.1z M12,6.9V6c0-0.3-0.2-0.5-0.5-0.5h-1.2
			c-2,0-3.8,0.9-5,2.3c0.5-2.5,2.8-4.3,5.4-4.3h0.8C11.8,3.5,12,3.3,12,3V2.1l2.7,2.4L12,6.9z"/>
	</g>
</g>
</svg>
