<svg width="19" height="18" viewBox="0 0 19 18" fill="none" xmlns="http://www.w3.org/2000/svg">
<path d="M17.5582 7.782L10.5342 0.655C10.336 0.448127 10.0979 0.283507 9.83436 0.171046C9.57082 0.0585854 9.28725 0.000610352 9.00072 0.000610352C8.71419 0.000610352 8.43062 0.0585854 8.16708 0.171046C7.90353 0.283507 7.66547 0.448127 7.46722 0.655L0.460219 7.766C0.250993 7.96617 0.104446 8.22283 0.0384028 8.50476C-0.0276405 8.78668 -0.0103335 9.08173 0.0882185 9.354C0.172986 9.6213 0.339711 9.85515 0.564775 10.0224C0.789839 10.1897 1.06183 10.2819 1.34222 10.286H1.80122V17.358C1.79636 17.5224 1.85671 17.6821 1.96911 17.8022C2.08152 17.9222 2.23685 17.993 2.40122 17.999H15.6012C15.7659 17.993 15.9216 17.922 16.034 17.8014C16.1465 17.6809 16.2066 17.5208 16.2012 17.356V10.286H16.6592C16.9397 10.2818 17.2118 10.1895 17.4369 10.022C17.662 9.85455 17.8286 9.62049 17.9132 9.353C18.0113 9.08472 18.03 8.79386 17.967 8.51523C17.9041 8.23661 17.7621 7.98204 17.5582 7.782ZM7.20122 16.714V13.499C7.18555 13.005 7.3661 12.5249 7.70339 12.1636C8.04069 11.8023 8.5073 11.5893 9.00122 11.571C9.49514 11.5893 9.96175 11.8023 10.299 12.1636C10.6363 12.5249 10.8169 13.005 10.8012 13.499V16.713L7.20122 16.714ZM16.6582 8.999H15.6012C15.4365 9.005 15.2808 9.07604 15.1684 9.19655C15.0559 9.31707 14.9958 9.47725 15.0012 9.642V16.714H12.0012V13.499C12.0277 12.6755 11.7269 11.875 11.1647 11.2727C10.6025 10.6704 9.8246 10.3152 9.00122 10.285C8.17784 10.3152 7.39995 10.6704 6.83774 11.2727C6.27552 11.875 5.97475 12.6755 6.00122 13.499V16.713H3.00122V9.643C3.00689 9.47808 2.9469 9.31765 2.83441 9.19691C2.72192 9.07617 2.56613 9.005 2.40122 8.999H1.34222C1.30986 8.99682 1.27899 8.98455 1.25397 8.9639C1.22895 8.94326 1.21104 8.91529 1.20276 8.88393C1.19448 8.85256 1.19624 8.8194 1.20781 8.78909C1.21937 8.75879 1.24015 8.73287 1.26722 8.715L8.29222 1.588C8.38387 1.49251 8.49387 1.41653 8.61562 1.36462C8.73738 1.31272 8.86836 1.28596 9.00072 1.28596C9.13307 1.28596 9.26406 1.31272 9.38582 1.36462C9.50757 1.41653 9.61757 1.49251 9.70922 1.588L16.7512 8.733C16.773 8.7534 16.7884 8.77969 16.7956 8.80868C16.8027 8.83768 16.8013 8.86812 16.7914 8.89631C16.7816 8.9245 16.7637 8.94921 16.7401 8.96744C16.7164 8.98567 16.688 8.99664 16.6582 8.999Z" fill="#F6F8FE"/>
</svg>
