<svg width="19" height="19" viewBox="0 0 19 19" fill="none" xmlns="http://www.w3.org/2000/svg">
<path d="M3.63297 7.679H9.61097C9.75087 7.679 9.88504 7.62343 9.98397 7.52451C10.0829 7.42558 10.1385 7.29141 10.1385 7.1515C10.1385 7.0116 10.0829 6.87743 9.98397 6.7785C9.88504 6.67958 9.75087 6.62401 9.61097 6.62401H3.63297C3.49307 6.62401 3.35889 6.67958 3.25997 6.7785C3.16104 6.87743 3.10547 7.0116 3.10547 7.1515C3.10547 7.29141 3.16104 7.42558 3.25997 7.52451C3.35889 7.62343 3.49307 7.679 3.63297 7.679Z" fill="#F6F8FE"/>
<path d="M8.20597 8.73401H3.63297C3.49307 8.73401 3.35889 8.78958 3.25997 8.8885C3.16104 8.98743 3.10547 9.1216 3.10547 9.26151C3.10547 9.40141 3.16104 9.53558 3.25997 9.63451C3.35889 9.73343 3.49307 9.789 3.63297 9.789H8.20597C8.34587 9.789 8.48004 9.73343 8.57897 9.63451C8.67789 9.53558 8.73347 9.40141 8.73347 9.26151C8.73347 9.1216 8.67789 8.98743 8.57897 8.8885C8.48004 8.78958 8.34587 8.73401 8.20597 8.73401Z" fill="#F6F8FE"/>
<path d="M8.20597 10.844H3.63297C3.49307 10.844 3.35889 10.8996 3.25997 10.9985C3.16104 11.0974 3.10547 11.2316 3.10547 11.3715C3.10547 11.5114 3.16104 11.6456 3.25997 11.7445C3.35889 11.8434 3.49307 11.899 3.63297 11.899H8.20597C8.34587 11.899 8.48004 11.8434 8.57897 11.7445C8.67789 11.6456 8.73347 11.5114 8.73347 11.3715C8.73347 11.2316 8.67789 11.0974 8.57897 10.9985C8.48004 10.8996 8.34587 10.844 8.20597 10.844Z" fill="#F6F8FE"/>
<path d="M8.20597 12.954H3.63297C3.49307 12.954 3.35889 13.0096 3.25997 13.1085C3.16104 13.2074 3.10547 13.3416 3.10547 13.4815C3.10547 13.6214 3.16104 13.7556 3.25997 13.8545C3.35889 13.9534 3.49307 14.009 3.63297 14.009H8.20597C8.34587 14.009 8.48004 13.9534 8.57897 13.8545C8.67789 13.7556 8.73347 13.6214 8.73347 13.4815C8.73347 13.3416 8.67789 13.2074 8.57897 13.1085C8.48004 13.0096 8.34587 12.954 8.20597 12.954Z" fill="#F6F8FE"/>
<path d="M18.8451 15.868L16.2071 13.23C16.5393 12.7824 16.7661 12.2654 16.8705 11.7178C16.9749 11.1702 16.9542 10.6061 16.8099 10.0676C16.6657 9.52915 16.4017 9.03023 16.0375 8.60812C15.6734 8.18602 15.2186 7.85165 14.7071 7.63V5.042C14.7071 4.97269 14.6933 4.90407 14.6667 4.84006C14.6402 4.77606 14.6012 4.71793 14.5521 4.669L11.0391 1.152C10.9901 1.10309 10.9319 1.06431 10.8679 1.03789C10.8039 1.01146 10.7353 0.997908 10.6661 0.998002H2.93009C2.41733 0.998531 1.92571 1.20246 1.56313 1.56504C1.20055 1.92762 0.996623 2.41924 0.996094 2.932L0.996094 17.068C0.99768 17.5801 1.20208 18.0707 1.56454 18.4324C1.92701 18.7941 2.41802 18.9975 2.93009 18.998H12.7761C13.2889 18.9975 13.7805 18.7935 14.1431 18.431C14.5056 18.0684 14.7096 17.5768 14.7101 17.064V14.413C14.9772 14.2981 15.2296 14.1517 15.4621 13.977L18.0961 16.614C18.195 16.7129 18.3292 16.7685 18.4691 16.7685C18.609 16.7685 18.7432 16.7129 18.8421 16.614C18.941 16.5151 18.9966 16.3809 18.9966 16.241C18.9966 16.1011 18.941 15.9669 18.8421 15.868H18.8451ZM15.1151 12.884C14.8156 13.1845 14.4478 13.4078 14.0431 13.535L14.0071 13.546C13.7617 13.619 13.5071 13.6561 13.2511 13.656C12.5516 13.656 11.8807 13.3781 11.3861 12.8835C10.8915 12.3889 10.6136 11.718 10.6136 11.0185C10.6136 10.319 10.8915 9.64814 11.3861 9.15351C11.8807 8.65888 12.5516 8.381 13.2511 8.381C13.5074 8.38082 13.7624 8.41788 14.0081 8.491L14.0441 8.502C14.4762 8.63858 14.8658 8.88413 15.1755 9.21499C15.4851 9.54585 15.7044 9.95087 15.8121 10.391C15.9198 10.8312 15.9123 11.2917 15.7904 11.7282C15.6685 12.1646 15.4363 12.5623 15.1161 12.883L15.1151 12.884ZM12.9081 4.514H11.1961V2.798L12.9081 4.514ZM13.6541 17.067C13.6538 17.3 13.5611 17.5235 13.3963 17.6883C13.2316 17.853 13.0081 17.9457 12.7751 17.946H2.93009C2.69705 17.9457 2.47363 17.853 2.30884 17.6883C2.14405 17.5235 2.05136 17.3 2.05109 17.067V2.932C2.05136 2.69896 2.14405 2.47553 2.30884 2.31075C2.47363 2.14596 2.69705 2.05327 2.93009 2.053H10.1391V5.042C10.1391 5.18177 10.1946 5.31581 10.2934 5.41465C10.3923 5.51348 10.5263 5.569 10.6661 5.569H13.6551V7.349C13.5222 7.33456 13.3887 7.32722 13.2551 7.327C12.2759 7.327 11.3368 7.71598 10.6445 8.40836C9.95207 9.10075 9.56309 10.0398 9.56309 11.019C9.56309 11.9982 9.95207 12.9373 10.6445 13.6296C11.3368 14.322 12.2759 14.711 13.2551 14.711C13.3887 14.7108 13.5222 14.7034 13.6551 14.689L13.6541 17.067Z" fill="#F6F8FE"/>
</svg>
