<?xml version="1.0" encoding="utf-8"?>
<!-- Generator: Adobe Illustrator 24.1.3, SVG Export Plug-In . SVG Version: 6.00 Build 0)  -->
<svg version="1.1" id="Layer_1" xmlns="http://www.w3.org/2000/svg" xmlns:xlink="http://www.w3.org/1999/xlink" x="0px" y="0px"
	 viewBox="0 0 200 70" style="enable-background:new 0 0 200 70;" xml:space="preserve">
<style type="text/css">
	.st0{fill:#E0B271;}
	.st1{clip-path:url(#SVGID_2_);}
	.st2{fill:#304B3E;}
</style>
<path class="st0" d="M58,8.4v21.3h-5.4v4.1H58v8h-5.4v4.1H58v8.3h-5.8v4.1H58v7.5H43v-7.4h6.1v-4.3H43v-8.3h6v-4.1h-6v-8h6.2v-4.1
	H43V0h-4.1v29.7h-5.9v4.1h5.9v8h-6v4.1h6v8.3h-5.9v4.3h5.9v7.4H23.3v-7.5h6.1v-4.1h-6.1v-8.3h6v-4.1h-6v-8h6.2v-4.1h-6.2V0h-4.2
	v29.7H13v4.1h6.1v8h-6v4.1h6v8.3h-5.9v4.1h5.9v7.5h-15v-7.5h5.8v-4.1H4.1v-8.3h5.5v-4.1H4.1v-8h5.6v-4.1H4.1V8.4H0v21.3v4.1v8v4.1
	v8.3v4.1v7.5V70h4.1h15h4.2h15.5H43h15h2h2.1V58.3v-4.1v-8.3v-4.1v-8v-4.1V8.4H58z"/>
<path class="st0" d="M126.9,42.2l-2.6,1.2c-0.2,0.1-0.1,0.2-0.1,0.2l0.5,0.5v18.9h2.2V44.2c-0.1-1.2,0.4-1.8,0.4-1.8
	C127.2,42.1,126.9,42.2,126.9,42.2z"/>
<path class="st0" d="M92,44v18.9h2.2V44.2c-0.1-1.2,0.4-1.8,0.4-1.8c0.1-0.3-0.3-0.1-0.3-0.1l-2.6,1.2c-0.2,0.1-0.1,0.2-0.1,0.2
	L92,44z"/>
<path class="st0" d="M116.7,53.6c-1.2,0-2.2,0.3-3.1,0.8c-0.9,0.5-1.4,1.2-1.8,1.9c-0.3,0.7-0.5,1.5-0.5,2.3c0,0.3,0,0.6,0.1,0.8
	c-0.2,2-1.3,2.1-1.3,2.1l-3,0.1c-1.4,0-1.8-1.2-1.9-2.2V44.2c-0.1-1.2,0.4-1.8,0.4-1.8c0.1-0.3-0.3-0.1-0.3-0.1l-2.5,1.1l-0.2,0.1
	c-0.1,0.1-0.1,0.2-0.1,0.2l0.3,0.3c0.1,0.1,0.1,0.2,0.1,0.4v14.8c0,0.1,0,1,0,1.2c0.2,2.3,1.2,2.6,1.9,2.6c0.3,0,0.6,0,0.6,0h5.2
	c1.2,0,1.7-0.6,1.8-0.8c0.3,0.3,0.6,0.6,1.1,0.9c0.8,0.5,1.7,0.8,2.6,0.8c1.5,0,2.8-0.5,3.9-1.5c1.1-1,1.6-2.3,1.6-3.8
	c0-1.4-0.5-2.6-1.4-3.5C119.3,54.1,118.2,53.6,116.7,53.6z M118.8,62.1c-0.5,0.6-1.2,1-2.1,1c-0.7,0-1.3-0.2-1.9-0.7
	c-0.5-0.5-1-1.1-1.2-1.8c-0.3-0.7-0.4-1.6-0.4-2.6c0-1.2,0.3-2.1,0.8-2.8c0.5-0.6,1.2-1,2.1-1c1.1,0,2,0.5,2.6,1.4
	c0.6,0.9,0.9,2.1,0.9,3.5C119.6,60.5,119.4,61.4,118.8,62.1z"/>
<path class="st0" d="M88.7,53.2L86,54.4c-0.2,0.1-0.1,0.2-0.1,0.2l0.5,0.5v4.5c0,0.7-0.3,2.2-2,2.1H76c0,0-4.1-0.3-4.3-3.8
	c0,0-0.4-1.8,1.9-3.9l-0.3-0.7c0,0-3,2.2-2.8,5.1c0,0,0,3.9,5.1,4.5h10c0,0,0.3,0,0.8-0.1c0.9-0.2,2.2-0.6,2.3-2.7
	c0-0.1,0-0.2,0-0.9v-4.1C88.6,54,89,53.3,89,53.3C89.1,53.1,88.7,53.2,88.7,53.2z"/>
<path class="st0" d="M79,53.8c0.7-0.3,1-1,0.7-1.7c-0.3-0.7-1.1-1-1.7-0.7c-0.7,0.3-1,1-0.7,1.7C77.5,53.8,78.3,54.1,79,53.8z"/>
<path class="st0" d="M82.7,53.8c0.7-0.3,1-1,0.7-1.7c-0.3-0.7-1.1-1-1.7-0.7c-0.7,0.3-1,1-0.7,1.7C81.3,53.8,82.1,54.1,82.7,53.8z"
	/>
<path class="st0" d="M97.6,55.5l0,8.2c0,0,0.5,4.3-4.1,4.3c0,0-1.4,0.1-2.8-0.6v0.9c0,0,1.9,1.3,3.8,1c0,0,4.9,0.1,5.4-4.2v-9.7
	c0.1-1.9,0.4-2.7,0.4-2.7h-3C97.2,52.6,97.5,53.5,97.6,55.5z"/>
<g>
	<defs>
		<rect id="SVGID_1_" x="69.6" y="15.9" width="130.4" height="24.8"/>
	</defs>
	<clipPath id="SVGID_2_">
		<use xlink:href="#SVGID_1_"  style="overflow:visible;"/>
	</clipPath>
	<g class="st1">
		<path class="st2" d="M70.3,37.2l-0.6,3.4h5l-0.6-3.4V19.5l0.6-3.4h-5l0.6,3.4V37.2z M105.6,19.5l0.6-3.4h-6.4L99,19.2l-6.2,16.7
			l-6.3-16.7L85.7,16h-6.6l0.6,3.4v17.7l-0.6,3.4h4.3l-0.6-3.4V19l8,21.6h3l8.2-21.6v18.1l-0.6,3.4h4.6l-0.6-3.4V19.5z M122.5,16
			h-5.2l0.8,1.8l-9.7,22.8h4.3l0.6-3.2l1-2.4h12.1l1,2.4l0.5,3.2h4.9L122.5,16z M115.4,32.2l4.9-11.7l4.9,11.7H115.4z M157,40.6
			l-8.2-10.5c2.1-0.3,3.7-1.1,4.8-2.3c1.1-1.2,1.7-2.7,1.7-4.6c0-2.4-0.7-4.1-2.2-5.4c-1.4-1.2-3.6-1.9-6.5-1.9H135l0.6,3.4v17.7
			l-0.6,3.4h5.1l-0.7-3.4v-6.4h5.5l5.4,7.1l0.9,2.8H157z M145.5,27.9h-6.2v-9.3h6.7c3.6,0,5.5,1.6,5.5,4.7c0,1.5-0.6,2.7-1.6,3.5
			C148.9,27.6,147.4,27.9,145.5,27.9z M171.6,16h-5.2l0.8,1.8l-9.7,22.8h4.3l0.6-3.2l1-2.4h12.1l1,2.4l0.5,3.2h4.9L171.6,16z
			 M164.5,32.2l4.9-11.7l4.9,11.7H164.5z M196.3,18.8l3.5,0.8l-0.6-3.6h-19.7l-0.6,3.6l3.5-0.8h5v18.3l-1,3.4h5.8l-1-3.4V18.8H196.3
			z"/>
	</g>
</g>
</svg>
