<svg width="148" height="52" viewBox="0 0 148 52" fill="none" xmlns="http://www.w3.org/2000/svg">
<path d="M43.3545 6.22911V21.9658H39.3158V24.9984H43.3545V30.8997H39.3158V33.9323H43.3545V40.0794H38.9861V43.112H43.3545V48.6854H32.145V43.194H36.7607V40.0794H32.145V33.9323H36.6782V30.8997H32.145V24.9984H36.8431V21.9658H32.145V0H29.0129V21.9658H24.562V24.9984H29.0129V30.8997H24.4796V33.9323H29.0129V40.0794H24.562V43.194H29.0129V48.6854H17.3913V43.112H21.9245V40.0794H17.3913V33.9323H21.8421V30.8997H17.3913V24.9984H22.0069V21.9658H17.3913V0H14.2592V21.9658H9.72591V24.9984H14.2592V30.8997H9.80834V33.9323H14.2592V40.0794H9.89076V43.112H14.3416V48.6854H3.13207V43.112H7.41807V40.0794H3.13207V33.9323H7.25322V30.8997H3.13207V24.9984H7.33565V21.9658H3.13207V6.22911H0V51.8H46.4866V6.22911H43.3545Z" fill="white"/>
<path d="M94.9293 31.0365L92.9512 31.9381C92.7863 31.9381 92.8688 32.0201 92.8688 32.0201L93.1984 32.3479V46.4454H94.8469V32.5118C94.7645 32.0201 94.9293 31.5283 95.1766 31.1185C95.1766 30.9546 94.9293 31.0365 94.9293 31.0365Z" fill="white"/>
<path d="M68.8024 32.4307V46.5281H70.4509V32.5946C70.3685 32.1028 70.5333 31.611 70.7806 31.2012C70.7806 31.0373 70.5333 31.1193 70.5333 31.1193L68.5552 32.0209C68.3903 32.0209 68.4728 32.1028 68.4728 32.1028L68.8024 32.4307Z" fill="white"/>
<path d="M87.2649 39.5606C86.4407 39.5606 85.6989 39.7245 84.957 40.2163C84.3801 40.5441 83.8855 41.0359 83.6383 41.6916C83.391 42.2653 83.2262 42.839 83.2262 43.4128C83.2262 43.6587 83.2262 43.8226 83.2262 44.0685C83.0613 45.5438 82.2371 45.6257 82.2371 45.6257H80.0117C79.0226 45.6257 78.6105 44.7242 78.6105 43.9865V32.5118C78.5281 32.0201 78.6929 31.5283 78.9402 31.1185C78.9402 30.9546 78.6929 31.0365 78.6929 31.0365L76.7972 31.8561L76.7147 31.9381L76.6323 32.0201L76.8796 32.2659C76.962 32.3479 76.962 32.4299 76.962 32.5118V43.5767C76.962 43.6587 76.962 44.3143 76.962 44.4783C77.1269 46.1995 77.8687 46.4454 78.4456 46.4454H82.814C83.3086 46.5273 83.8855 46.2814 84.2152 45.7897C84.4625 46.0356 84.7098 46.2814 85.0395 46.4454C85.6164 46.8552 86.2758 47.0191 87.0176 47.0191C88.0891 47.0191 89.1606 46.6093 89.9024 45.8716C90.7267 45.134 91.1388 44.0685 91.1388 43.003C91.1388 42.0194 90.8091 41.1178 90.0673 40.4621C89.243 39.8884 88.3364 39.5606 87.2649 39.5606ZM88.9134 45.8716C88.5012 46.3634 88.0067 46.6093 87.3473 46.6093C86.8528 46.6093 86.3582 46.4454 85.9461 46.1175C85.534 45.7897 85.2043 45.2979 85.0395 44.8061C84.8746 44.2324 84.7098 43.5767 84.7098 42.921C84.6274 42.1833 84.8746 41.4457 85.2867 40.8719C85.6989 40.3802 86.2758 40.1343 86.8528 40.1343C87.5946 40.1343 88.3364 40.4621 88.7485 41.1178C89.243 41.9375 89.4079 42.839 89.4079 43.7406C89.5727 44.4783 89.4079 45.2159 88.9134 45.8716Z" fill="white"/>
<path d="M66.4117 39.315L64.4336 40.2166C64.2687 40.2166 64.3512 40.3805 64.3512 40.3805L64.6809 40.7903V44.1508C64.6809 44.6425 64.4336 45.79 63.1148 45.708H56.9331C56.9331 45.708 53.8834 45.4621 53.7186 42.8394C53.7186 42.8394 53.3889 41.446 55.1198 39.9707L54.8725 39.397C54.8725 39.397 52.6471 41.0362 52.8119 43.2492C52.8119 43.2492 52.8119 46.1998 56.6034 46.6096H64.1039C64.2687 46.6096 64.516 46.6096 64.6809 46.5276C65.6699 46.4457 66.4117 45.5441 66.4117 44.5606V40.8723C66.3293 40.3805 66.4942 39.8887 66.7414 39.4789C66.659 39.1511 66.4117 39.315 66.4117 39.315Z" fill="white"/>
<path d="M58.7469 39.8063C59.2931 39.8063 59.736 39.3659 59.736 38.8227C59.736 38.2796 59.2931 37.8392 58.7469 37.8392C58.2006 37.8392 57.7578 38.2796 57.7578 38.8227C57.7578 39.3659 58.2006 39.8063 58.7469 39.8063Z" fill="white"/>
<path d="M61.5482 39.8063C62.0944 39.8063 62.5372 39.3659 62.5372 38.8227C62.5372 38.2796 62.0944 37.8392 61.5482 37.8392C61.0019 37.8392 60.5591 38.2796 60.5591 38.8227C60.5591 39.3659 61.0019 39.8063 61.5482 39.8063Z" fill="white"/>
<path d="M73.0043 40.9538V47.019C73.2515 48.5763 72.0976 50.0516 70.614 50.2155C70.3667 50.2155 70.2019 50.2155 69.9546 50.2155C69.2128 50.2155 68.5534 50.0516 67.894 49.7237V50.3794C68.7183 50.9532 69.7073 51.199 70.6964 51.1171C70.6964 51.1171 74.323 51.199 74.7352 48.0025V40.8718C74.7352 40.2161 74.8176 39.4785 74.9824 38.8228H72.757C72.9218 39.5604 73.0867 40.2161 73.0043 40.9538Z" fill="white"/>
<path d="M53.1696 27.9742L52.7344 30.4896H56.4063L55.9711 27.9742V15.0455L56.4063 12.5301H52.7344L53.1696 15.0455V27.9742ZM79.0332 15.0455L79.4412 12.5301H74.7628L74.2188 14.8561L69.6493 27.0275L65.0526 14.8561L64.4814 12.5301H59.6671L60.1023 15.0455V27.9742L59.6671 30.4896H62.8222L62.4142 27.9742V14.748L68.2349 30.4896H70.4381L76.4764 14.7209V27.9742L76.0412 30.4896H79.4412L79.0332 27.9742V15.0455ZM91.3725 12.5301H87.5373L88.1357 13.8554L81.0366 30.4896H84.1918L84.5998 28.1635L85.3613 26.3784H94.2284L94.99 28.1635L95.3708 30.4896H98.9611L91.3725 12.5301ZM86.2045 24.3769L89.7949 15.8298L93.4124 24.3769H86.2045ZM116.675 30.4896L110.664 22.8352C112.188 22.5918 113.357 22.0238 114.173 21.1582C114.989 20.2927 115.397 19.1837 115.397 17.8314C115.397 16.1003 114.853 14.802 113.82 13.8824C112.759 12.9899 111.154 12.5301 109.032 12.5301H100.546L100.981 15.0455V27.9742L100.546 30.4896H104.3L103.783 27.9742V23.2679H107.836L111.807 28.461L112.46 30.4896H116.675ZM108.244 21.2394H103.728V14.4234H108.624C111.29 14.4234 112.623 15.5594 112.623 17.8314C112.623 18.9403 112.215 19.7788 111.453 20.3738C110.692 20.9689 109.604 21.2394 108.244 21.2394ZM127.338 12.5301H123.502L124.101 13.8554L117.002 30.4896H120.157L120.565 28.1635L121.326 26.3784H130.194L130.955 28.1635L131.336 30.4896H134.927L127.338 12.5301ZM122.17 24.3769L125.76 15.8298L129.378 24.3769H122.17ZM145.443 14.5857L148 15.1807L147.592 12.5301H133.149L132.741 15.1807L135.325 14.5857H138.969V27.9742L138.262 30.4896H142.478L141.771 27.9742V14.5857H145.443Z" fill="white"/>
</svg>
