<svg width="275" height="210" viewBox="0 0 275 210" fill="none" xmlns="http://www.w3.org/2000/svg">
<path d="M0 4C0 1.79086 1.79086 0 4 0H271C273.209 0 275 1.79086 275 4V210H0V4Z" fill="#FAFAFA"/>
<path d="M75.9885 160.076V173H75.0165C74.8665 173 74.7405 172.973 74.6385 172.919C74.5425 172.865 74.4435 172.778 74.3415 172.658L67.0425 163.217C67.0545 163.379 67.0635 163.538 67.0695 163.694C67.0815 163.85 67.0875 163.997 67.0875 164.135V173H65.4045V160.076H66.3945C66.5625 160.076 66.6885 160.097 66.7725 160.139C66.8565 160.175 66.9495 160.262 67.0515 160.4L74.3685 169.85C74.3505 169.676 74.3355 169.508 74.3235 169.346C74.3175 169.178 74.3145 169.022 74.3145 168.878V160.076H75.9885ZM82.4415 163.712C83.1135 163.712 83.7195 163.823 84.2595 164.045C84.8055 164.261 85.2675 164.576 85.6455 164.99C86.0295 165.398 86.3235 165.893 86.5275 166.475C86.7315 167.051 86.8335 167.699 86.8335 168.419C86.8335 169.139 86.7315 169.79 86.5275 170.372C86.3235 170.954 86.0295 171.449 85.6455 171.857C85.2675 172.265 84.8055 172.58 84.2595 172.802C83.7195 173.018 83.1135 173.126 82.4415 173.126C81.7635 173.126 81.1515 173.018 80.6055 172.802C80.0655 172.58 79.6035 172.265 79.2195 171.857C78.8355 171.449 78.5385 170.954 78.3285 170.372C78.1245 169.79 78.0225 169.139 78.0225 168.419C78.0225 167.699 78.1245 167.051 78.3285 166.475C78.5385 165.893 78.8355 165.398 79.2195 164.99C79.6035 164.576 80.0655 164.261 80.6055 164.045C81.1515 163.823 81.7635 163.712 82.4415 163.712ZM82.4415 171.758C83.3055 171.758 83.9505 171.467 84.3765 170.885C84.8025 170.303 85.0155 169.484 85.0155 168.428C85.0155 167.372 84.8025 166.553 84.3765 165.971C83.9505 165.383 83.3055 165.089 82.4415 165.089C81.5655 165.089 80.9115 165.383 80.4795 165.971C80.0535 166.553 79.8405 167.372 79.8405 168.428C79.8405 169.484 80.0535 170.303 80.4795 170.885C80.9115 171.467 81.5655 171.758 82.4415 171.758ZM95.1813 163.856V173H93.4263V163.856H95.1813ZM95.5143 161.03C95.5143 161.192 95.4813 161.348 95.4153 161.498C95.3493 161.642 95.2593 161.771 95.1453 161.885C95.0373 161.993 94.9083 162.08 94.7583 162.146C94.6083 162.206 94.4523 162.236 94.2903 162.236C94.1283 162.236 93.9753 162.206 93.8313 162.146C93.6873 162.08 93.5583 161.993 93.4443 161.885C93.3363 161.771 93.2493 161.642 93.1833 161.498C93.1233 161.348 93.0933 161.192 93.0933 161.03C93.0933 160.862 93.1233 160.706 93.1833 160.562C93.2493 160.412 93.3363 160.283 93.4443 160.175C93.5583 160.061 93.6873 159.974 93.8313 159.914C93.9753 159.848 94.1283 159.815 94.2903 159.815C94.4523 159.815 94.6083 159.848 94.7583 159.914C94.9083 159.974 95.0373 160.061 95.1453 160.175C95.2593 160.283 95.3493 160.412 95.4153 160.562C95.4813 160.706 95.5143 160.862 95.5143 161.03ZM97.7223 173V163.856H98.7753C99.0213 163.856 99.1743 163.973 99.2343 164.207L99.3603 165.08C99.6963 164.678 100.068 164.351 100.476 164.099C100.89 163.841 101.373 163.712 101.925 163.712C102.531 163.712 103.023 163.88 103.401 164.216C103.779 164.546 104.055 164.996 104.229 165.566C104.361 165.242 104.532 164.963 104.742 164.729C104.952 164.495 105.186 164.303 105.444 164.153C105.702 164.003 105.975 163.892 106.263 163.82C106.557 163.748 106.854 163.712 107.154 163.712C107.64 163.712 108.072 163.79 108.45 163.946C108.834 164.096 109.158 164.318 109.422 164.612C109.686 164.906 109.887 165.269 110.025 165.701C110.163 166.133 110.232 166.625 110.232 167.177V173H108.468V167.177C108.468 166.493 108.318 165.977 108.018 165.629C107.724 165.281 107.292 165.107 106.722 165.107C106.47 165.107 106.23 165.152 106.002 165.242C105.774 165.326 105.573 165.455 105.399 165.629C105.231 165.803 105.096 166.019 104.994 166.277C104.898 166.535 104.85 166.835 104.85 167.177V173H103.086V167.177C103.086 166.469 102.945 165.947 102.663 165.611C102.381 165.275 101.967 165.107 101.421 165.107C101.043 165.107 100.692 165.206 100.368 165.404C100.044 165.602 99.7473 165.872 99.4773 166.214V173H97.7223ZM117.507 168.941C116.793 168.965 116.187 169.022 115.689 169.112C115.191 169.196 114.786 169.31 114.474 169.454C114.162 169.598 113.937 169.769 113.799 169.967C113.661 170.159 113.592 170.375 113.592 170.615C113.592 170.843 113.628 171.041 113.7 171.209C113.778 171.371 113.88 171.506 114.006 171.614C114.138 171.716 114.291 171.791 114.465 171.839C114.639 171.887 114.828 171.911 115.032 171.911C115.302 171.911 115.548 171.884 115.77 171.83C115.998 171.776 116.211 171.701 116.409 171.605C116.607 171.503 116.796 171.38 116.976 171.236C117.156 171.092 117.333 170.927 117.507 170.741V168.941ZM112.359 165.134C112.869 164.648 113.421 164.285 114.015 164.045C114.615 163.805 115.272 163.685 115.986 163.685C116.508 163.685 116.97 163.772 117.372 163.946C117.774 164.114 118.113 164.351 118.389 164.657C118.665 164.963 118.872 165.329 119.01 165.755C119.154 166.181 119.226 166.652 119.226 167.168V173H118.443C118.269 173 118.137 172.973 118.047 172.919C117.957 172.859 117.885 172.751 117.831 172.595L117.642 171.794C117.408 172.01 117.177 172.202 116.949 172.37C116.721 172.532 116.481 172.673 116.229 172.793C115.983 172.907 115.719 172.994 115.437 173.054C115.155 173.114 114.843 173.144 114.501 173.144C114.141 173.144 113.802 173.096 113.484 173C113.172 172.898 112.899 172.745 112.665 172.541C112.431 172.337 112.245 172.082 112.107 171.776C111.975 171.47 111.909 171.113 111.909 170.705C111.909 170.345 112.005 170 112.197 169.67C112.395 169.334 112.713 169.034 113.151 168.77C113.595 168.506 114.171 168.29 114.879 168.122C115.593 167.954 116.469 167.858 117.507 167.834V167.168C117.507 166.478 117.36 165.962 117.066 165.62C116.772 165.278 116.34 165.107 115.77 165.107C115.386 165.107 115.062 165.155 114.798 165.251C114.54 165.347 114.315 165.455 114.123 165.575C113.937 165.689 113.772 165.794 113.628 165.89C113.49 165.986 113.346 166.034 113.196 166.034C113.076 166.034 112.971 166.001 112.881 165.935C112.797 165.869 112.728 165.791 112.674 165.701L112.359 165.134ZM124.789 168.437C125.101 168.437 125.374 168.395 125.608 168.311C125.848 168.227 126.046 168.11 126.202 167.96C126.364 167.804 126.484 167.618 126.562 167.402C126.646 167.186 126.688 166.949 126.688 166.691C126.688 166.163 126.526 165.743 126.202 165.431C125.884 165.113 125.413 164.954 124.789 164.954C124.171 164.954 123.7 165.113 123.376 165.431C123.058 165.743 122.899 166.163 122.899 166.691C122.899 166.949 122.938 167.186 123.016 167.402C123.1 167.612 123.22 167.795 123.376 167.951C123.538 168.101 123.736 168.221 123.97 168.311C124.21 168.395 124.483 168.437 124.789 168.437ZM127.588 173.477C127.588 173.261 127.528 173.09 127.408 172.964C127.288 172.832 127.123 172.73 126.913 172.658C126.709 172.58 126.469 172.526 126.193 172.496C125.917 172.46 125.626 172.433 125.32 172.415C125.02 172.397 124.711 172.382 124.393 172.37C124.075 172.352 123.769 172.322 123.475 172.28C123.163 172.436 122.905 172.625 122.701 172.847C122.503 173.069 122.404 173.33 122.404 173.63C122.404 173.822 122.452 174.002 122.548 174.17C122.65 174.338 122.803 174.482 123.007 174.602C123.217 174.728 123.478 174.824 123.79 174.89C124.108 174.962 124.486 174.998 124.924 174.998C125.356 174.998 125.737 174.959 126.067 174.881C126.397 174.809 126.673 174.704 126.895 174.566C127.123 174.434 127.294 174.275 127.408 174.089C127.528 173.903 127.588 173.699 127.588 173.477ZM129.37 164.198V164.855C129.37 165.071 129.235 165.206 128.965 165.26L127.984 165.404C128.068 165.59 128.134 165.788 128.182 165.998C128.23 166.202 128.254 166.418 128.254 166.646C128.254 167.096 128.167 167.504 127.993 167.87C127.819 168.23 127.579 168.539 127.273 168.797C126.967 169.055 126.601 169.253 126.175 169.391C125.755 169.529 125.293 169.598 124.789 169.598C124.375 169.598 123.988 169.553 123.628 169.463C123.448 169.571 123.31 169.691 123.214 169.823C123.124 169.949 123.079 170.075 123.079 170.201C123.079 170.411 123.166 170.567 123.34 170.669C123.52 170.771 123.751 170.846 124.033 170.894C124.321 170.936 124.648 170.963 125.014 170.975C125.386 170.987 125.761 171.008 126.139 171.038C126.523 171.062 126.898 171.11 127.264 171.182C127.636 171.248 127.963 171.359 128.245 171.515C128.533 171.665 128.764 171.875 128.938 172.145C129.118 172.409 129.208 172.754 129.208 173.18C129.208 173.576 129.109 173.96 128.911 174.332C128.719 174.704 128.437 175.034 128.065 175.322C127.693 175.61 127.24 175.841 126.706 176.015C126.172 176.189 125.566 176.276 124.888 176.276C124.21 176.276 123.619 176.21 123.115 176.078C122.617 175.946 122.2 175.769 121.864 175.547C121.534 175.325 121.285 175.067 121.117 174.773C120.955 174.479 120.874 174.173 120.874 173.855C120.874 173.411 121.012 173.036 121.288 172.73C121.564 172.418 121.945 172.175 122.431 172.001C122.167 171.881 121.957 171.719 121.801 171.515C121.645 171.305 121.567 171.029 121.567 170.687C121.567 170.555 121.591 170.42 121.639 170.282C121.687 170.138 121.759 169.997 121.855 169.859C121.957 169.715 122.08 169.58 122.224 169.454C122.374 169.328 122.545 169.214 122.737 169.112C122.287 168.86 121.933 168.527 121.675 168.113C121.417 167.693 121.288 167.204 121.288 166.646C121.288 166.196 121.375 165.791 121.549 165.431C121.723 165.071 121.963 164.762 122.269 164.504C122.581 164.246 122.95 164.048 123.376 163.91C123.808 163.772 124.279 163.703 124.789 163.703C125.581 163.703 126.262 163.868 126.832 164.198H129.37ZM136.896 167.411C136.896 167.063 136.845 166.742 136.743 166.448C136.647 166.154 136.503 165.899 136.311 165.683C136.119 165.467 135.885 165.299 135.609 165.179C135.333 165.059 135.015 164.999 134.655 164.999C133.917 164.999 133.335 165.212 132.909 165.638C132.489 166.064 132.222 166.655 132.108 167.411H136.896ZM138.345 171.695C138.129 171.947 137.88 172.166 137.598 172.352C137.316 172.532 137.016 172.679 136.698 172.793C136.38 172.907 136.05 172.991 135.708 173.045C135.372 173.099 135.039 173.126 134.709 173.126C134.079 173.126 133.494 173.021 132.954 172.811C132.42 172.595 131.955 172.283 131.559 171.875C131.169 171.461 130.863 170.951 130.641 170.345C130.425 169.733 130.317 169.031 130.317 168.239C130.317 167.603 130.416 167.012 130.614 166.466C130.812 165.914 131.094 165.434 131.46 165.026C131.832 164.618 132.285 164.297 132.819 164.063C133.353 163.829 133.953 163.712 134.619 163.712C135.177 163.712 135.69 163.805 136.158 163.991C136.632 164.171 137.04 164.435 137.382 164.783C137.724 165.131 137.991 165.56 138.183 166.07C138.381 166.58 138.48 167.162 138.48 167.816C138.48 168.086 138.45 168.269 138.39 168.365C138.33 168.455 138.219 168.5 138.057 168.5H132.063C132.081 169.046 132.159 169.523 132.297 169.931C132.435 170.333 132.624 170.669 132.864 170.939C133.11 171.209 133.401 171.41 133.737 171.542C134.073 171.674 134.448 171.74 134.862 171.74C135.252 171.74 135.588 171.695 135.87 171.605C136.158 171.515 136.404 171.419 136.608 171.317C136.818 171.209 136.992 171.11 137.13 171.02C137.274 170.93 137.4 170.885 137.508 170.885C137.652 170.885 137.763 170.939 137.841 171.047L138.345 171.695ZM149.834 168.941C149.12 168.965 148.514 169.022 148.016 169.112C147.518 169.196 147.113 169.31 146.801 169.454C146.489 169.598 146.264 169.769 146.126 169.967C145.988 170.159 145.919 170.375 145.919 170.615C145.919 170.843 145.955 171.041 146.027 171.209C146.105 171.371 146.207 171.506 146.333 171.614C146.465 171.716 146.618 171.791 146.792 171.839C146.966 171.887 147.155 171.911 147.359 171.911C147.629 171.911 147.875 171.884 148.097 171.83C148.325 171.776 148.538 171.701 148.736 171.605C148.934 171.503 149.123 171.38 149.303 171.236C149.483 171.092 149.66 170.927 149.834 170.741V168.941ZM144.686 165.134C145.196 164.648 145.748 164.285 146.342 164.045C146.942 163.805 147.599 163.685 148.313 163.685C148.835 163.685 149.297 163.772 149.699 163.946C150.101 164.114 150.44 164.351 150.716 164.657C150.992 164.963 151.199 165.329 151.337 165.755C151.481 166.181 151.553 166.652 151.553 167.168V173H150.77C150.596 173 150.464 172.973 150.374 172.919C150.284 172.859 150.212 172.751 150.158 172.595L149.969 171.794C149.735 172.01 149.504 172.202 149.276 172.37C149.048 172.532 148.808 172.673 148.556 172.793C148.31 172.907 148.046 172.994 147.764 173.054C147.482 173.114 147.17 173.144 146.828 173.144C146.468 173.144 146.129 173.096 145.811 173C145.499 172.898 145.226 172.745 144.992 172.541C144.758 172.337 144.572 172.082 144.434 171.776C144.302 171.47 144.236 171.113 144.236 170.705C144.236 170.345 144.332 170 144.524 169.67C144.722 169.334 145.04 169.034 145.478 168.77C145.922 168.506 146.498 168.29 147.206 168.122C147.92 167.954 148.796 167.858 149.834 167.834V167.168C149.834 166.478 149.687 165.962 149.393 165.62C149.099 165.278 148.667 165.107 148.097 165.107C147.713 165.107 147.389 165.155 147.125 165.251C146.867 165.347 146.642 165.455 146.45 165.575C146.264 165.689 146.099 165.794 145.955 165.89C145.817 165.986 145.673 166.034 145.523 166.034C145.403 166.034 145.298 166.001 145.208 165.935C145.124 165.869 145.055 165.791 145.001 165.701L144.686 165.134ZM161.647 163.856L157.939 173H156.355L152.647 163.856H154.096C154.234 163.856 154.348 163.889 154.438 163.955C154.528 164.021 154.588 164.105 154.618 164.207L156.805 169.823C156.883 170.057 156.949 170.291 157.003 170.525C157.063 170.753 157.117 170.981 157.165 171.209C157.213 170.981 157.267 170.753 157.327 170.525C157.387 170.297 157.459 170.063 157.543 169.823L159.757 164.207C159.793 164.105 159.856 164.021 159.946 163.955C160.036 163.889 160.144 163.856 160.27 163.856H161.647ZM167.746 168.941C167.032 168.965 166.426 169.022 165.928 169.112C165.43 169.196 165.025 169.31 164.713 169.454C164.401 169.598 164.176 169.769 164.038 169.967C163.9 170.159 163.831 170.375 163.831 170.615C163.831 170.843 163.867 171.041 163.939 171.209C164.017 171.371 164.119 171.506 164.245 171.614C164.377 171.716 164.53 171.791 164.704 171.839C164.878 171.887 165.067 171.911 165.271 171.911C165.541 171.911 165.787 171.884 166.009 171.83C166.237 171.776 166.45 171.701 166.648 171.605C166.846 171.503 167.035 171.38 167.215 171.236C167.395 171.092 167.572 170.927 167.746 170.741V168.941ZM162.598 165.134C163.108 164.648 163.66 164.285 164.254 164.045C164.854 163.805 165.511 163.685 166.225 163.685C166.747 163.685 167.209 163.772 167.611 163.946C168.013 164.114 168.352 164.351 168.628 164.657C168.904 164.963 169.111 165.329 169.249 165.755C169.393 166.181 169.465 166.652 169.465 167.168V173H168.682C168.508 173 168.376 172.973 168.286 172.919C168.196 172.859 168.124 172.751 168.07 172.595L167.881 171.794C167.647 172.01 167.416 172.202 167.188 172.37C166.96 172.532 166.72 172.673 166.468 172.793C166.222 172.907 165.958 172.994 165.676 173.054C165.394 173.114 165.082 173.144 164.74 173.144C164.38 173.144 164.041 173.096 163.723 173C163.411 172.898 163.138 172.745 162.904 172.541C162.67 172.337 162.484 172.082 162.346 171.776C162.214 171.47 162.148 171.113 162.148 170.705C162.148 170.345 162.244 170 162.436 169.67C162.634 169.334 162.952 169.034 163.39 168.77C163.834 168.506 164.41 168.29 165.118 168.122C165.832 167.954 166.708 167.858 167.746 167.834V167.168C167.746 166.478 167.599 165.962 167.305 165.62C167.011 165.278 166.579 165.107 166.009 165.107C165.625 165.107 165.301 165.155 165.037 165.251C164.779 165.347 164.554 165.455 164.362 165.575C164.176 165.689 164.011 165.794 163.867 165.89C163.729 165.986 163.585 166.034 163.435 166.034C163.315 166.034 163.21 166.001 163.12 165.935C163.036 165.869 162.967 165.791 162.913 165.701L162.598 165.134ZM173.65 163.856V173H171.895V163.856H173.65ZM173.983 161.03C173.983 161.192 173.95 161.348 173.884 161.498C173.818 161.642 173.728 161.771 173.614 161.885C173.506 161.993 173.377 162.08 173.227 162.146C173.077 162.206 172.921 162.236 172.759 162.236C172.597 162.236 172.444 162.206 172.3 162.146C172.156 162.08 172.027 161.993 171.913 161.885C171.805 161.771 171.718 161.642 171.652 161.498C171.592 161.348 171.562 161.192 171.562 161.03C171.562 160.862 171.592 160.706 171.652 160.562C171.718 160.412 171.805 160.283 171.913 160.175C172.027 160.061 172.156 159.974 172.3 159.914C172.444 159.848 172.597 159.815 172.759 159.815C172.921 159.815 173.077 159.848 173.227 159.914C173.377 159.974 173.506 160.061 173.614 160.175C173.728 160.283 173.818 160.412 173.884 160.562C173.95 160.706 173.983 160.862 173.983 161.03ZM177.991 159.716V173H176.227V159.716H177.991ZM185.412 168.941C184.698 168.965 184.092 169.022 183.594 169.112C183.096 169.196 182.691 169.31 182.379 169.454C182.067 169.598 181.842 169.769 181.704 169.967C181.566 170.159 181.497 170.375 181.497 170.615C181.497 170.843 181.533 171.041 181.605 171.209C181.683 171.371 181.785 171.506 181.911 171.614C182.043 171.716 182.196 171.791 182.37 171.839C182.544 171.887 182.733 171.911 182.937 171.911C183.207 171.911 183.453 171.884 183.675 171.83C183.903 171.776 184.116 171.701 184.314 171.605C184.512 171.503 184.701 171.38 184.881 171.236C185.061 171.092 185.238 170.927 185.412 170.741V168.941ZM180.264 165.134C180.774 164.648 181.326 164.285 181.92 164.045C182.52 163.805 183.177 163.685 183.891 163.685C184.413 163.685 184.875 163.772 185.277 163.946C185.679 164.114 186.018 164.351 186.294 164.657C186.57 164.963 186.777 165.329 186.915 165.755C187.059 166.181 187.131 166.652 187.131 167.168V173H186.348C186.174 173 186.042 172.973 185.952 172.919C185.862 172.859 185.79 172.751 185.736 172.595L185.547 171.794C185.313 172.01 185.082 172.202 184.854 172.37C184.626 172.532 184.386 172.673 184.134 172.793C183.888 172.907 183.624 172.994 183.342 173.054C183.06 173.114 182.748 173.144 182.406 173.144C182.046 173.144 181.707 173.096 181.389 173C181.077 172.898 180.804 172.745 180.57 172.541C180.336 172.337 180.15 172.082 180.012 171.776C179.88 171.47 179.814 171.113 179.814 170.705C179.814 170.345 179.91 170 180.102 169.67C180.3 169.334 180.618 169.034 181.056 168.77C181.5 168.506 182.076 168.29 182.784 168.122C183.498 167.954 184.374 167.858 185.412 167.834V167.168C185.412 166.478 185.265 165.962 184.971 165.62C184.677 165.278 184.245 165.107 183.675 165.107C183.291 165.107 182.967 165.155 182.703 165.251C182.445 165.347 182.22 165.455 182.028 165.575C181.842 165.689 181.677 165.794 181.533 165.89C181.395 165.986 181.251 166.034 181.101 166.034C180.981 166.034 180.876 166.001 180.786 165.935C180.702 165.869 180.633 165.791 180.579 165.701L180.264 165.134ZM191.235 170.75C191.523 171.128 191.835 171.392 192.171 171.542C192.507 171.692 192.873 171.767 193.269 171.767C194.085 171.767 194.712 171.476 195.15 170.894C195.594 170.312 195.816 169.433 195.816 168.257C195.816 167.171 195.621 166.376 195.231 165.872C194.841 165.362 194.289 165.107 193.575 165.107C193.071 165.107 192.633 165.221 192.261 165.449C191.895 165.677 191.553 166.001 191.235 166.421V170.75ZM191.235 165.116C191.613 164.696 192.042 164.357 192.522 164.099C193.002 163.841 193.548 163.712 194.16 163.712C194.694 163.712 195.174 163.817 195.6 164.027C196.032 164.231 196.398 164.528 196.698 164.918C196.998 165.302 197.229 165.77 197.391 166.322C197.553 166.874 197.634 167.498 197.634 168.194C197.634 168.932 197.541 169.604 197.355 170.21C197.175 170.816 196.914 171.335 196.572 171.767C196.236 172.199 195.825 172.535 195.339 172.775C194.853 173.009 194.307 173.126 193.701 173.126C193.407 173.126 193.137 173.096 192.891 173.036C192.645 172.982 192.417 172.901 192.207 172.793C192.003 172.685 191.814 172.553 191.64 172.397C191.466 172.241 191.301 172.064 191.145 171.866L191.064 172.631C191.016 172.877 190.866 173 190.614 173H189.48V159.716H191.235V165.116ZM201.387 159.716V173H199.623V159.716H201.387ZM209.951 167.411C209.951 167.063 209.9 166.742 209.798 166.448C209.702 166.154 209.558 165.899 209.366 165.683C209.174 165.467 208.94 165.299 208.664 165.179C208.388 165.059 208.07 164.999 207.71 164.999C206.972 164.999 206.39 165.212 205.964 165.638C205.544 166.064 205.277 166.655 205.163 167.411H209.951ZM211.4 171.695C211.184 171.947 210.935 172.166 210.653 172.352C210.371 172.532 210.071 172.679 209.753 172.793C209.435 172.907 209.105 172.991 208.763 173.045C208.427 173.099 208.094 173.126 207.764 173.126C207.134 173.126 206.549 173.021 206.009 172.811C205.475 172.595 205.01 172.283 204.614 171.875C204.224 171.461 203.918 170.951 203.696 170.345C203.48 169.733 203.372 169.031 203.372 168.239C203.372 167.603 203.471 167.012 203.669 166.466C203.867 165.914 204.149 165.434 204.515 165.026C204.887 164.618 205.34 164.297 205.874 164.063C206.408 163.829 207.008 163.712 207.674 163.712C208.232 163.712 208.745 163.805 209.213 163.991C209.687 164.171 210.095 164.435 210.437 164.783C210.779 165.131 211.046 165.56 211.238 166.07C211.436 166.58 211.535 167.162 211.535 167.816C211.535 168.086 211.505 168.269 211.445 168.365C211.385 168.455 211.274 168.5 211.112 168.5H205.118C205.136 169.046 205.214 169.523 205.352 169.931C205.49 170.333 205.679 170.669 205.919 170.939C206.165 171.209 206.456 171.41 206.792 171.542C207.128 171.674 207.503 171.74 207.917 171.74C208.307 171.74 208.643 171.695 208.925 171.605C209.213 171.515 209.459 171.419 209.663 171.317C209.873 171.209 210.047 171.11 210.185 171.02C210.329 170.93 210.455 170.885 210.563 170.885C210.707 170.885 210.818 170.939 210.896 171.047L211.4 171.695Z" fill="#1B2739" fill-opacity="0.5"/>
<path d="M108.131 72.1411C108.131 77.479 112.483 81.822 117.833 81.822C123.183 81.822 127.535 77.479 127.535 72.1411C127.535 66.8023 123.183 62.4592 117.833 62.4592C112.483 62.4592 108.131 66.8023 108.131 72.1411ZM122.848 72.1411C122.848 74.9 120.599 77.1446 117.833 77.1446C115.068 77.1446 112.818 74.9 112.818 72.1411C112.818 69.3812 115.068 67.1366 117.833 67.1366C120.599 67.1366 122.848 69.3812 122.848 72.1411Z" fill="#8A919A"/>
<path d="M158.702 46.6784C159.321 46.6784 159.923 46.4281 160.359 45.9932C160.795 45.5584 161.046 44.9545 161.046 44.3397C161.046 43.7221 160.796 43.121 160.359 42.6861C159.923 42.2486 159.321 42.001 158.702 42.001C158.086 42.001 157.482 42.2486 157.046 42.6861C156.609 43.121 156.358 43.7221 156.358 44.3397C156.358 44.9545 156.609 45.5584 157.046 45.9932C157.482 46.4281 158.086 46.6784 158.702 46.6784Z" fill="#8A919A"/>
<path d="M186.281 42H167.14C165.847 42 164.797 43.0469 164.797 44.3387C164.797 45.6305 165.847 46.6774 167.14 46.6774H186.281C190.159 46.6774 193.312 49.8246 193.312 53.6935V118.932L155.288 80.9887C154.372 80.0761 152.888 80.0761 151.973 80.9887L127.239 105.669L121.323 99.7669C120.883 99.3284 120.287 99.0817 119.666 99.0817C119.044 99.0817 118.448 99.3284 118.008 99.7669L83.3732 134.327C82.9338 133.411 82.6875 132.387 82.6875 131.306V53.6935C82.6875 49.8246 85.8415 46.6774 89.7188 46.6774H149.328C150.622 46.6774 151.672 45.6305 151.672 44.3387C151.672 43.0469 150.622 42 149.328 42H89.7188C83.257 42 78 47.2456 78 53.6935V131.306C78 134.454 79.2552 137.313 81.2895 139.418C81.3344 139.471 81.3801 139.523 81.4305 139.573C81.479 139.622 81.5303 139.666 81.5815 139.709C83.6909 141.744 86.5602 143 89.7188 143H186.281C192.743 143 198 137.754 198 131.306V53.6935C198 47.2456 192.743 42 186.281 42V42ZM186.281 138.323H89.7188C88.6339 138.323 87.6048 138.075 86.6865 137.636L119.665 104.727L125.581 110.63V110.632H125.582L140.449 125.467C141.365 126.381 142.849 126.381 143.763 125.467C144.679 124.553 144.679 123.073 143.763 122.159L130.553 108.977L153.63 85.9503L193.232 125.466C193.258 125.493 193.286 125.515 193.312 125.539V131.306C193.312 135.174 190.159 138.323 186.281 138.323V138.323Z" fill="#8A919A"/>
<path d="M148.894 128.248C148.275 128.248 147.672 128.496 147.236 128.933C146.798 129.368 146.55 129.969 146.55 130.587C146.55 131.202 146.798 131.803 147.236 132.24C147.672 132.675 148.275 132.925 148.894 132.925C149.51 132.925 150.114 132.675 150.551 132.24C150.986 131.803 151.237 131.202 151.237 130.587C151.237 129.969 150.986 129.368 150.551 128.933C150.114 128.496 149.51 128.248 148.894 128.248Z" fill="#8A919A"/>
</svg>
