<svg xmlns="http://www.w3.org/2000/svg" width="16" height="16.023" viewBox="0 0 16 16.023">
    <defs>
        <style>
            .cls-1{fill:#717171}
        </style>
    </defs>
    <g id="phone-call" transform="translate(-.344)">
        <g id="Group_684" transform="translate(.344)">
            <path id="Path_956" d="M12.929 36.359a1.567 1.567 0 0 0-1.137-.522 1.621 1.621 0 0 0-1.15.518l-1.063 1.06c-.087-.047-.175-.091-.259-.135-.121-.061-.235-.118-.333-.178a11.554 11.554 0 0 1-2.768-2.523 6.818 6.818 0 0 1-.908-1.433c.276-.252.531-.515.78-.767.094-.094.188-.192.283-.286a1.544 1.544 0 0 0 0-2.328l-.918-.919c-.1-.1-.212-.212-.313-.32-.2-.209-.414-.424-.632-.626a1.592 1.592 0 0 0-1.127-.495 1.647 1.647 0 0 0-1.144.495l-.007.007-1.145 1.154a2.462 2.462 0 0 0-.73 1.565 5.9 5.9 0 0 0 .431 2.5 14.488 14.488 0 0 0 2.573 4.293 15.83 15.83 0 0 0 5.271 4.128 8.211 8.211 0 0 0 2.96.875c.071 0 .145.007.212.007a2.534 2.534 0 0 0 1.941-.834c0-.007.01-.01.013-.017a7.649 7.649 0 0 1 .589-.609c.145-.138.293-.283.437-.434a1.679 1.679 0 0 0 .508-1.164 1.617 1.617 0 0 0-.518-1.154zm1.2 3.543c-.131.141-.266.269-.41.41a8.845 8.845 0 0 0-.649.673 1.621 1.621 0 0 1-1.265.535h-.155a7.294 7.294 0 0 1-2.62-.79 14.942 14.942 0 0 1-4.965-3.89 13.66 13.66 0 0 1-2.422-4.034 4.805 4.805 0 0 1-.376-2.106 1.545 1.545 0 0 1 .464-1l1.147-1.147a.765.765 0 0 1 .511-.239.719.719 0 0 1 .491.236l.01.01c.205.192.4.39.605.6.1.108.212.215.32.326l.918.919a.642.642 0 0 1 0 1.043c-.1.1-.192.2-.289.289-.283.289-.552.559-.844.821-.007.007-.013.01-.017.017a.686.686 0 0 0-.175.764l.01.03A7.375 7.375 0 0 0 5.5 35.145a12.347 12.347 0 0 0 3 2.722 4.591 4.591 0 0 0 .414.225c.121.061.235.118.333.178l.04.024a.729.729 0 0 0 .333.084.719.719 0 0 0 .511-.232L11.277 37a.761.761 0 0 1 .508-.252.685.685 0 0 1 .484.246l.007.007 1.853 1.854a.665.665 0 0 1 .004 1.045z" class="cls-1" transform="translate(-.344 -26.402)"/>
            <path id="Path_957" d="M245.351 86.906a4.713 4.713 0 0 1 3.838 3.838.491.491 0 0 0 .487.41.654.654 0 0 0 .084-.007.5.5 0 0 0 .407-.571 5.7 5.7 0 0 0-4.644-4.644.5.5 0 0 0-.571.4.489.489 0 0 0 .399.574z" class="cls-1" transform="translate(-236.968 -83.123)"/>
            <path id="Path_958" d="M257 7.655a9.384 9.384 0 0 0-7.65-7.647.494.494 0 1 0-.161.974 8.382 8.382 0 0 1 6.834 6.834.491.491 0 0 0 .487.41.654.654 0 0 0 .084-.007.485.485 0 0 0 .406-.564z" class="cls-1" transform="translate(-241.004)"/>
        </g>
    </g>
</svg>
