<svg width="18" height="18" viewBox="0 0 18 18" fill="none" xmlns="http://www.w3.org/2000/svg">
<path d="M17.469 17.996H0.527C0.387231 17.996 0.253186 17.9405 0.154355 17.8416C0.0555231 17.7428 0 17.6088 0 17.469C0 17.3292 0.0555231 17.1952 0.154355 17.0963C0.253186 16.9975 0.387231 16.942 0.527 16.942H17.469C17.6088 16.942 17.7428 16.9975 17.8416 17.0963C17.9405 17.1952 17.996 17.3292 17.996 17.469C17.996 17.6088 17.9405 17.7428 17.8416 17.8416C17.7428 17.9405 17.6088 17.996 17.469 17.996Z" fill="white"/>
<path d="M3.72585 17.996H1.61684C1.47708 17.996 1.34303 17.9405 1.2442 17.8416C1.14537 17.7428 1.08984 17.6088 1.08984 17.469V13.603C1.09011 13.37 1.1828 13.1465 1.34759 12.9818C1.51238 12.817 1.7358 12.7243 1.96884 12.724H3.37484C3.60789 12.7243 3.83131 12.817 3.9961 12.9818C4.16088 13.1465 4.25358 13.37 4.25385 13.603V17.469C4.25385 17.5383 4.24018 17.6069 4.21363 17.6709C4.18709 17.7349 4.14818 17.7931 4.09914 17.842C4.05009 17.891 3.99188 17.9298 3.92783 17.9562C3.86377 17.9826 3.79514 17.9961 3.72585 17.996ZM2.14384 16.942H3.19785V13.779H2.14384V16.942Z" fill="white"/>
<path d="M7.94313 17.996H5.83412C5.69435 17.996 5.56032 17.9405 5.46149 17.8416C5.36266 17.7428 5.30713 17.6088 5.30713 17.469V12.337C5.30739 12.104 5.40009 11.8805 5.56488 11.7158C5.72967 11.551 5.95308 11.4583 6.18613 11.458H7.59213C7.82518 11.4583 8.04859 11.551 8.21338 11.7158C8.37817 11.8805 8.47087 12.104 8.47113 12.337V17.469C8.47113 17.5383 8.45747 17.6069 8.43092 17.6709C8.40438 17.7349 8.36546 17.7931 8.31642 17.842C8.26738 17.891 8.20917 17.9298 8.14511 17.9562C8.08106 17.9826 8.01242 17.9961 7.94313 17.996ZM6.36113 16.942H7.41513V12.513H6.36113V16.942Z" fill="white"/>
<path d="M12.1609 17.996H10.0519C9.91214 17.996 9.77809 17.9405 9.67926 17.8416C9.58043 17.7428 9.5249 17.6088 9.5249 17.469V10.404C9.52517 10.1709 9.61787 9.94753 9.78265 9.78275C9.94744 9.61796 10.1709 9.52526 10.4039 9.52499H11.8099C12.043 9.52526 12.2664 9.61796 12.4312 9.78275C12.5959 9.94753 12.6886 10.1709 12.6889 10.404V17.469C12.6889 17.5383 12.6752 17.6069 12.6487 17.6709C12.6221 17.7349 12.5832 17.7931 12.5342 17.842C12.4851 17.891 12.4269 17.9298 12.3629 17.9562C12.2988 17.9826 12.2302 17.9961 12.1609 17.996ZM10.5789 16.942H11.6329V10.58H10.5789V16.942Z" fill="white"/>
<path d="M16.3792 17.996H14.2702C14.1304 17.996 13.9964 17.9405 13.8975 17.8416C13.7987 17.7428 13.7432 17.6087 13.7432 17.469V6.88898C13.7434 6.65593 13.8361 6.43252 14.0009 6.26773C14.1657 6.10294 14.3891 6.01024 14.6222 6.00998H16.0282C16.2612 6.01024 16.4846 6.10294 16.6494 6.26773C16.8142 6.43252 16.9069 6.65593 16.9072 6.88898V17.469C16.9072 17.5383 16.8935 17.6069 16.8669 17.6709C16.8404 17.7349 16.8015 17.793 16.7524 17.842C16.7034 17.8909 16.6452 17.9297 16.5811 17.9561C16.5171 17.9826 16.4484 17.9961 16.3792 17.996ZM14.7971 16.942H15.8512V7.06499H14.7971V16.942Z" fill="white"/>
<path d="M0.527 11.329C0.457793 11.329 0.389264 11.3154 0.325326 11.2889C0.261387 11.2624 0.203291 11.2236 0.154355 11.1746C0.105418 11.1257 0.0665997 11.0676 0.0401155 11.0037C0.0136313 10.9397 0 10.8712 0 10.802C0 10.7328 0.0136313 10.6643 0.0401155 10.6003C0.0665997 10.5364 0.105418 10.4783 0.154355 10.4294C0.203291 10.3804 0.261387 10.3416 0.325326 10.3151C0.389264 10.2886 0.457793 10.275 0.527 10.275C3.93723 10.1718 7.24147 9.06606 10.027 7.096C12.6301 5.42139 14.7358 3.07847 16.124 0.311996C16.1812 0.184427 16.2866 0.0847868 16.4173 0.0349959C16.4819 0.010342 16.5508 -0.00133168 16.62 0.000641468C16.6892 0.00261462 16.7573 0.0181959 16.8205 0.0464958C16.8837 0.0747957 16.9406 0.11526 16.9882 0.165578C17.0357 0.215896 17.0728 0.275083 17.0975 0.339759C17.1222 0.404435 17.1338 0.473334 17.1319 0.542521C17.1299 0.611709 17.1143 0.67983 17.086 0.742996C15.6182 3.68735 13.386 6.18307 10.623 7.969C7.66029 10.0584 4.14694 11.2272 0.523 11.329H0.527Z" fill="white"/>
<path d="M17.4689 4.27699C17.3528 4.27696 17.24 4.23861 17.148 4.16792C17.056 4.09722 16.9898 3.99811 16.9599 3.88599L16.2329 1.17299L13.5199 1.89999C13.4529 1.91851 13.3828 1.92358 13.3138 1.9149C13.2448 1.90623 13.1782 1.88399 13.1178 1.84946C13.0575 1.81493 13.0046 1.76879 12.9621 1.71371C12.9197 1.65863 12.8885 1.59569 12.8705 1.52852C12.8525 1.46135 12.848 1.39129 12.8572 1.32236C12.8664 1.25342 12.8891 1.187 12.9241 1.1269C12.9591 1.0668 13.0056 1.01421 13.061 0.972181C13.1164 0.930148 13.1796 0.899495 13.2469 0.881989L16.4689 0.018989C16.5358 0.000999607 16.6056 -0.00361945 16.6743 0.00539613C16.743 0.0144117 16.8092 0.036885 16.8692 0.0715299C16.9292 0.106175 16.9818 0.152311 17.0239 0.207299C17.0661 0.262288 17.097 0.325048 17.1149 0.391989L17.9779 3.61399C17.9987 3.69217 18.0013 3.7741 17.9855 3.85345C17.9696 3.9328 17.9357 4.00744 17.8864 4.07161C17.8371 4.13578 17.7738 4.18777 17.7012 4.22355C17.6286 4.25934 17.5488 4.27796 17.4679 4.27799L17.4689 4.27699Z" fill="white"/>
</svg>
