<svg width="18" height="18" viewBox="0 0 18 18" fill="none" xmlns="http://www.w3.org/2000/svg">
<path d="M15.241 7.34901C15.0949 7.34901 14.9547 7.40706 14.8514 7.51039C14.7481 7.61372 14.69 7.75387 14.69 7.90001V15.979C14.6897 16.2224 14.5929 16.4557 14.4208 16.6278C14.2487 16.7999 14.0154 16.8967 13.772 16.897H2.02C1.77661 16.8967 1.54327 16.7999 1.37117 16.6278C1.19907 16.4557 1.10226 16.2224 1.102 15.979V4.22401C1.10226 3.98062 1.19907 3.74727 1.37117 3.57517C1.54327 3.40307 1.77661 3.30627 2.02 3.30601H10.1C10.2401 3.29755 10.3718 3.23593 10.468 3.13371C10.5642 3.0315 10.6178 2.89639 10.6178 2.756C10.6178 2.61561 10.5642 2.48052 10.468 2.3783C10.3718 2.27609 10.2401 2.21446 10.1 2.20601H2.02C1.48477 2.20654 0.971586 2.41925 0.592934 2.79753C0.214283 3.17581 0.00105855 3.68878 0 4.22401L0 15.98C0.000529486 16.5156 0.21352 17.0291 0.592229 17.4078C0.970938 17.7865 1.48443 17.9995 2.02 18H13.772C14.3076 17.9995 14.8211 17.7865 15.1998 17.4078C15.5785 17.0291 15.7915 16.5156 15.792 15.98V7.90001C15.792 7.75387 15.7339 7.61372 15.6306 7.51039C15.5273 7.40706 15.3871 7.34901 15.241 7.34901Z" fill="#F6F8FE"/>
<path d="M17.5998 1.50501L16.4938 0.399007C16.237 0.142837 15.889 -0.00102234 15.5263 -0.00102234C15.1636 -0.00102234 14.8156 0.142837 14.5588 0.399007L5.7118 9.24601C5.63004 9.32803 5.57436 9.43241 5.55179 9.54601L4.9988 12.311C4.97977 12.4057 4.98443 12.5036 5.01236 12.596C5.0403 12.6885 5.09065 12.7726 5.15894 12.8409C5.22723 12.9092 5.31133 12.9595 5.40377 12.9874C5.49621 13.0154 5.59413 13.02 5.6888 13.001L8.4538 12.448C8.5674 12.4254 8.67178 12.3698 8.7538 12.288L17.6008 3.44101C17.857 3.18418 18.0008 2.83625 18.0008 2.47351C18.0008 2.11077 17.857 1.76283 17.6008 1.50601L17.5998 1.50501ZM8.04979 11.332L6.3218 11.678L6.66781 9.95001L13.8678 2.75001L15.2498 4.13201L8.04979 11.332ZM16.7708 2.61101L16.0798 3.30201L14.6978 1.92001L15.3888 1.22901C15.426 1.19355 15.4754 1.17377 15.5268 1.17377C15.5782 1.17377 15.6276 1.19355 15.6648 1.22901L16.7708 2.33501C16.8063 2.3722 16.826 2.42162 16.826 2.47301C16.826 2.52439 16.8063 2.57381 16.7708 2.61101Z" fill="#F6F8FE"/>
</svg>
